<svg id="default" xmlns="http://www.w3.org/2000/svg" width="93.833" height="75.702" viewBox="0 0 93.833 75.702">
  <path id="Tracé_1" data-name="Tracé 1" d="M362.181,2131.219c-.071,0-.141,0-.211-.006-7.777-.537-13.724-1.689-18.716-3.625a31.7,31.7,0,0,1-13.331-9.434,1.169,1.169,0,0,0-.476.4,3.052,3.052,0,0,1-2.676,1.578,3.085,3.085,0,0,1-.558-.052,3.045,3.045,0,0,1-2.478-2.642,12.24,12.24,0,0,1-.077-1.328,3.059,3.059,0,0,1-4.923-2.446,22.557,22.557,0,0,1,1.06-6.623,10,10,0,0,0,.513-5.153,40.8,40.8,0,0,1,1.464-21.287,17.808,17.808,0,0,1-2.373-5.76,29.034,29.034,0,0,1-.65-7.309,40.3,40.3,0,0,1,1.058-8.105,3.066,3.066,0,0,1,1.839-2.082,23.877,23.877,0,0,1,6.841-1.3c.644-.04,1.306-.061,1.968-.061a36.993,36.993,0,0,1,13.217,2.52,50.328,50.328,0,0,1,14.7-2.983l.113,0h14.333l.111,0a50.325,50.325,0,0,1,14.7,2.983,36.989,36.989,0,0,1,13.216-2.52c.663,0,1.326.02,1.969.061a23.889,23.889,0,0,1,6.84,1.3,3.068,3.068,0,0,1,1.84,2.083,40.412,40.412,0,0,1,1.057,8.1,29.046,29.046,0,0,1-.65,7.309,17.806,17.806,0,0,1-2.373,5.76A40.792,40.792,0,0,1,411,2101.891a10,10,0,0,0,.513,5.153,22.6,22.6,0,0,1,1.059,6.623,3.058,3.058,0,0,1-3.057,3.081h0a3.039,3.039,0,0,1-1.865-.634,12.2,12.2,0,0,1-.077,1.328,3.081,3.081,0,0,1-2.5,2.656,3.114,3.114,0,0,1-.535.047,3.033,3.033,0,0,1-2.664-1.564,1.462,1.462,0,0,0-.322-.329,1.145,1.145,0,0,0-.164-.1,31.7,31.7,0,0,1-13.333,9.437c-4.992,1.937-10.939,3.089-18.716,3.625-.07,0-.14.006-.21.006Z" transform="translate(-318.735 -2055.517)" fill="#fff"/>
  <g id="Groupe_19" data-name="Groupe 19" transform="translate(1.981 1.981)">
    <g id="Groupe_1" data-name="Groupe 1" transform="translate(1.076 1.076)">
      <path id="Tracé_2" data-name="Tracé 2" d="M380.761,2146.744c-13.394-.924-23.863-3.849-30.791-13.086a4.283,4.283,0,0,0-4.619,2s-.462-3.85,1.386-5.235c-3.233-1.231-6.364,1.848-6.364,1.848a20.026,20.026,0,0,1,.872-5.593,13.026,13.026,0,0,0,.655-6.734,37.747,37.747,0,0,1,1.911-21.236c-5.85-6.774-2.463-19.937-2.463-19.937s8.775-3.464,20.938,1.616c6.466-2.925,14.78-3.233,14.78-3.233H391.4s8.314.308,14.78,3.233c12.162-5.081,20.938-1.616,20.938-1.616s3.387,13.163-2.463,19.937a37.746,37.746,0,0,1,1.911,21.236,13.026,13.026,0,0,0,.655,6.734,20.028,20.028,0,0,1,.872,5.593s-3.131-3.079-6.364-1.848c1.848,1.386,1.386,5.235,1.386,5.235a4.283,4.283,0,0,0-4.619-2c-6.928,9.238-17.4,12.163-30.791,13.086Z" transform="translate(-340.374 -2077.156)" fill="#fcd2d4"/>
    </g>
    <g id="Groupe_2" data-name="Groupe 2" transform="translate(28.131 1.076)">
      <path id="Tracé_3" data-name="Tracé 3" d="M541.469,2077.156a50.811,50.811,0,0,0-7.436.96,8.862,8.862,0,0,0-2.2,5.7c0,6.277,7.305,11.366,16.317,11.366q.244,0,.486,0t.487,0c9.012,0,16.317-5.089,16.317-11.366a8.861,8.861,0,0,0-2.2-5.7,50.807,50.807,0,0,0-7.436-.96Z" transform="translate(-531.832 -2077.156)" fill="#ed5f5f"/>
    </g>
    <g id="Groupe_3" data-name="Groupe 3" transform="translate(18.103 44.21)">
      <path id="Tracé_4" data-name="Tracé 4" d="M487.7,2382.4c-14.848.112-26.832,8.075-26.832,17.883a12.01,12.01,0,0,0,.275,2.544c6.211,3.841,13.971,5.4,23.086,6.026h6.943c9.115-.629,16.875-2.185,23.086-6.026a12.006,12.006,0,0,0,.275-2.544C514.528,2390.473,502.544,2382.51,487.7,2382.4Z" transform="translate(-460.863 -2382.398)" fill="#fff"/>
    </g>
    <g id="Groupe_4" data-name="Groupe 4">
      <path id="Tracé_5" data-name="Tracé 5" d="M381.164,2141.279h-6.943l-.074,0c-7.573-.522-13.335-1.633-18.135-3.5a29.692,29.692,0,0,1-13.171-9.662,3.178,3.178,0,0,0-3.077,1.5,1.076,1.076,0,0,1-2.02-.375,9.791,9.791,0,0,1,.542-4.562,7.054,7.054,0,0,0-3.7,1.816,1.077,1.077,0,0,1-1.829-.778,20.92,20.92,0,0,1,.938-5.955,11.982,11.982,0,0,0,.605-6.178c-1.364-7.8-.8-14.757,1.736-21.232a15.2,15.2,0,0,1-2.667-5.919,27.074,27.074,0,0,1-.6-6.808,38.117,38.117,0,0,1,1-7.667,1.077,1.077,0,0,1,.647-.733,22.1,22.1,0,0,1,6.236-1.17,34.648,34.648,0,0,1,15.081,2.619,47.113,47.113,0,0,1,14.755-3.139H384.9a47.113,47.113,0,0,1,14.755,3.139,34.637,34.637,0,0,1,15.081-2.619,22.1,22.1,0,0,1,6.237,1.17,1.077,1.077,0,0,1,.647.733,38.13,38.13,0,0,1,1,7.667,27.061,27.061,0,0,1-.6,6.808,15.2,15.2,0,0,1-2.666,5.919c2.533,6.476,3.1,13.428,1.736,21.232a11.982,11.982,0,0,0,.605,6.178,20.921,20.921,0,0,1,.938,5.955,1.077,1.077,0,0,1-1.831.776,7.055,7.055,0,0,0-3.7-1.814,9.791,9.791,0,0,1,.543,4.562,1.082,1.082,0,0,1-.877.941,1.065,1.065,0,0,1-1.14-.561,3.327,3.327,0,0,0-.865-.932,3.122,3.122,0,0,0-2.214-.576,29.688,29.688,0,0,1-13.172,9.663c-4.8,1.863-10.563,2.974-18.135,3.5Zm-6.906-2.153h6.869c15.34-1.063,24.023-4.731,29.967-12.656a1.076,1.076,0,0,1,.66-.411,5.432,5.432,0,0,1,3.674.521,2.917,2.917,0,0,0-.885-1.836,1.077,1.077,0,0,1,.263-1.867,6.5,6.5,0,0,1,5.515.642,13.828,13.828,0,0,0-.65-3.01,14.136,14.136,0,0,1-.7-7.291c1.334-7.631.73-14.382-1.846-20.64a1.076,1.076,0,0,1,.181-1.113c4.754-5.5,2.9-15.884,2.363-18.4a22.741,22.741,0,0,0-5.162-.858,32.652,32.652,0,0,0-14.447,2.639,1.079,1.079,0,0,1-.858-.012c-6.05-2.737-13.928-3.119-14.358-3.138H370.549c-.427.019-8.307.4-14.358,3.138a1.079,1.079,0,0,1-.858.012,32.651,32.651,0,0,0-14.447-2.639,22.762,22.762,0,0,0-5.161.858c-.54,2.521-2.39,12.9,2.363,18.4a1.076,1.076,0,0,1,.181,1.113c-2.577,6.258-3.18,13.009-1.846,20.64a14.137,14.137,0,0,1-.705,7.291,13.83,13.83,0,0,0-.651,3.01,6.5,6.5,0,0,1,5.516-.642,1.077,1.077,0,0,1,.263,1.867,2.949,2.949,0,0,0-.881,1.834,5.427,5.427,0,0,1,3.67-.52,1.077,1.077,0,0,1,.66.411C350.235,2134.4,358.918,2138.063,374.258,2139.126Z" transform="translate(-332.757 -2069.54)" fill="#841919"/>
    </g>
    <g id="Groupe_5" data-name="Groupe 5" transform="translate(5.107 4.591)">
      <path id="Tracé_6" data-name="Tracé 6" d="M369.189,2102.216a20.65,20.65,0,0,1,12.611,2.3,4.413,4.413,0,0,1,.906,6.914,23.332,23.332,0,0,1-6.608,4.754,3.745,3.745,0,0,1-4.926-1.67A19.386,19.386,0,0,1,369.189,2102.216Z" transform="translate(-368.898 -2102.03)" fill="#ed5f5f"/>
    </g>
    <g id="Groupe_6" data-name="Groupe 6" transform="translate(69.677 4.591)">
      <path id="Tracé_7" data-name="Tracé 7" d="M840.63,2102.216a20.651,20.651,0,0,0-12.611,2.3,4.413,4.413,0,0,0-.906,6.914,23.334,23.334,0,0,0,6.608,4.754,3.745,3.745,0,0,0,4.926-1.67A19.387,19.387,0,0,0,840.63,2102.216Z" transform="translate(-825.835 -2102.03)" fill="#ed5f5f"/>
    </g>
    <g id="Groupe_7" data-name="Groupe 7" transform="translate(4.361 3.84)">
      <path id="Tracé_8" data-name="Tracé 8" d="M369.954,2112.729a4.468,4.468,0,0,1-3.981-2.436,20.078,20.078,0,0,1-2.054-12.775.745.745,0,0,1,.607-.6,21.215,21.215,0,0,1,13.115,2.394,5.159,5.159,0,0,1,1.058,8.082,24.05,24.05,0,0,1-6.82,4.9A4.523,4.523,0,0,1,369.954,2112.729Zm-4.657-14.41a18.692,18.692,0,0,0,2,11.292,2.991,2.991,0,0,0,3.947,1.336,22.577,22.577,0,0,0,6.4-4.6,3.668,3.668,0,0,0-.754-5.747A19.894,19.894,0,0,0,365.3,2098.319Z" transform="translate(-363.615 -2096.713)" fill="#841919"/>
    </g>
    <g id="Groupe_8" data-name="Groupe 8" transform="translate(68.932 3.84)">
      <path id="Tracé_9" data-name="Tracé 9" d="M830.8,2112.729a4.514,4.514,0,0,1-1.924-.433,24.048,24.048,0,0,1-6.82-4.9,5.159,5.159,0,0,1,1.058-8.082,21.224,21.224,0,0,1,13.115-2.395.746.746,0,0,1,.607.6,20.081,20.081,0,0,1-2.054,12.776A4.469,4.469,0,0,1,830.8,2112.729Zm2.574-14.513a19.031,19.031,0,0,0-9.506,2.38,3.668,3.668,0,0,0-.754,5.747,22.56,22.56,0,0,0,6.4,4.6,2.99,2.99,0,0,0,3.947-1.336,18.691,18.691,0,0,0,2-11.292A20.28,20.28,0,0,0,833.371,2098.216Z" transform="translate(-820.558 -2096.714)" fill="#841919"/>
    </g>
    <g id="Groupe_9" data-name="Groupe 9" transform="translate(34.109 56.036)">
      <path id="Tracé_10" data-name="Tracé 10" d="M590.643,2470.935a6.968,6.968,0,0,1-1.333-.134,6.5,6.5,0,0,1-4.347-3.3,6.5,6.5,0,0,1-4.347,3.3,5.369,5.369,0,0,1-5.095-1.4,5.993,5.993,0,0,1-1.36-2.123.455.455,0,0,1,.865-.286,4.568,4.568,0,0,0,5.417,2.918,5.85,5.85,0,0,0,4.111-3.568.455.455,0,0,1,.821,0,5.849,5.849,0,0,0,4.111,3.568,4.568,4.568,0,0,0,5.417-2.919.455.455,0,0,1,.865.286,5.992,5.992,0,0,1-1.36,2.123A5.16,5.16,0,0,1,590.643,2470.935Z" transform="translate(-574.136 -2466.081)" fill="#561010"/>
    </g>
    <g id="Groupe_10" data-name="Groupe 10" transform="translate(39.871 50.027)">
      <ellipse id="Ellipse_2" data-name="Ellipse 2" cx="5.064" cy="3.232" rx="5.064" ry="3.232" fill="#561010"/>
    </g>
    <g id="Groupe_11" data-name="Groupe 11" transform="translate(23.561 32.358)">
      <ellipse id="Ellipse_3" data-name="Ellipse 3" cx="6.733" cy="8.35" rx="6.733" ry="8.35" fill="#561010"/>
    </g>
    <g id="Groupe_12" data-name="Groupe 12" transform="translate(52.842 32.358)">
      <ellipse id="Ellipse_4" data-name="Ellipse 4" cx="6.733" cy="8.35" rx="6.733" ry="8.35" fill="#561010"/>
    </g>
    <g id="Groupe_13" data-name="Groupe 13" transform="translate(23.121 34.226)">
      <ellipse id="Ellipse_5" data-name="Ellipse 5" cx="2.505" cy="3.106" rx="2.505" ry="3.106" fill="#fff"/>
    </g>
    <g id="Groupe_14" data-name="Groupe 14" transform="translate(61.739 34.226)">
      <ellipse id="Ellipse_6" data-name="Ellipse 6" cx="2.505" cy="3.106" rx="2.505" ry="3.106" fill="#fff"/>
    </g>
    <g id="Groupe_15" data-name="Groupe 15" transform="translate(34.063 43.527)">
      <ellipse id="Ellipse_7" data-name="Ellipse 7" cx="1.26" cy="1.562" rx="1.26" ry="1.562" fill="#fff"/>
    </g>
    <g id="Groupe_16" data-name="Groupe 16" transform="translate(53.288 43.527)">
      <ellipse id="Ellipse_8" data-name="Ellipse 8" cx="1.26" cy="1.562" rx="1.26" ry="1.562" fill="#fff"/>
    </g>
    <g id="Groupe_17" data-name="Groupe 17" transform="translate(9.915 42.485)">
      <circle id="Ellipse_9" data-name="Ellipse 9" cx="3.124" cy="3.124" r="3.124" fill="#ed5f5f"/>
    </g>
    <g id="Groupe_18" data-name="Groupe 18" transform="translate(73.707 42.485)">
      <circle id="Ellipse_10" data-name="Ellipse 10" cx="3.124" cy="3.124" r="3.124" fill="#ed5f5f"/>
    </g>
  </g>
</svg>
